<?xml version="1.0" encoding="iso-8859-1"?>
<!-- Uploaded to: SVG Repo, www.svgrepo.com, Generator: SVG Repo Mixer Tools -->
<!DOCTYPE svg PUBLIC "-//W3C//DTD SVG 1.1//EN" "http://www.w3.org/Graphics/SVG/1.1/DTD/svg11.dtd">
<svg fill="#000000" height="800px" width="800px" version="1.1" id="Capa_1" xmlns="http://www.w3.org/2000/svg" xmlns:xlink="http://www.w3.org/1999/xlink" 
	 viewBox="0 0 352.069 352.069" xml:space="preserve">
<g>
	<path d="M337.102,56.035H14.968C6.714,56.035,0,62.749,0,71.001v39.147v61.6v109.32c0,8.252,6.714,14.966,14.968,14.966h322.134
		c8.253,0,14.968-6.714,14.968-14.966v-109.32v-61.6V71.001C352.069,62.749,345.355,56.035,337.102,56.035z M56.535,251.763h-15v-47
		h15V251.763z M86.535,251.763h-15v-47h15V251.763z M116.535,251.763h-15v-47h15V251.763z M278.777,258.997
		c-5.521,0-10.826-1.651-15.315-4.714c-4.489,3.062-9.795,4.714-15.316,4.714c-15.02,0-27.239-12.22-27.239-27.241
		c0-15.021,12.219-27.241,27.239-27.241c5.521,0,10.827,1.651,15.316,4.714c4.489-3.063,9.794-4.714,15.315-4.714
		c15.021,0,27.242,12.22,27.242,27.241C306.02,246.776,293.799,258.997,278.777,258.997z M342.069,161.749H10v-41.6h332.069V161.749
		z"/>
</g>
</svg>