<?xml version="1.0" encoding="utf-8"?>
<!-- Uploaded to: SVG Repo, www.svgrepo.com, Generator: SVG Repo Mixer Tools -->
<svg width="800px" height="800px" viewBox="0 0 1024 1024" class="icon"  version="1.1" xmlns="http://www.w3.org/2000/svg"><path d="M512 512m-480 0a480 480 0 1 0 960 0 480 480 0 1 0-960 0Z" fill="#E5F1FF" /><path d="M512 435.2m-211.2 0a211.2 211.2 0 1 0 422.4 0 211.2 211.2 0 1 0-422.4 0Z" fill="#A9D2FF" /><path d="M512 435.2c-6.4 0-6.4 0-12.8-6.4l-64-89.6c-6.4-6.4 0-12.8 0-19.2 6.4-6.4 12.8 0 19.2 0l64 89.6c6.4 6.4 0 12.8 0 19.2 0 6.4-6.4 6.4-6.4 6.4z" fill="#FFFFFF" /><path d="M512 556.8c-6.4 0-12.8-6.4-12.8-12.8v-128l70.4-89.6c0-6.4 12.8-6.4 12.8 0 6.4 6.4 6.4 12.8 0 19.2l-64 83.2v115.2c6.4 6.4 0 12.8-6.4 12.8z" fill="#FFFFFF" /><path d="M556.8 435.2H467.2c-6.4 0-12.8-6.4-12.8-12.8s6.4-12.8 12.8-12.8h89.6c6.4 0 12.8 6.4 12.8 12.8s-6.4 12.8-12.8 12.8zM556.8 480H467.2c-6.4 0-12.8-6.4-12.8-12.8s6.4-12.8 12.8-12.8h89.6c6.4 0 12.8 6.4 12.8 12.8s-6.4 12.8-12.8 12.8z" fill="#FFFFFF" /><path d="M793.6 595.2c-12.8-25.6-44.8-25.6-64-19.2l-57.6 12.8c0 19.2-6.4 32-25.6 51.2-38.4 32-108.8 38.4-160 38.4h-57.6c-12.8 0-19.2-12.8-12.8-19.2 0-12.8 12.8-19.2 19.2-12.8 38.4 6.4 147.2 6.4 185.6-25.6 12.8-19.2 19.2-25.6 19.2-38.4-12.8-12.8-32-19.2-44.8-19.2H236.8c-6.4 0-12.8 6.4-12.8 12.8v134.4c0 6.4 6.4 12.8 12.8 12.8 96 32 217.6 70.4 288 70.4h25.6c44.8-6.4 198.4-108.8 230.4-134.4 12.8-12.8 19.2-38.4 12.8-64z" fill="#72AEFD" /></svg>