<?xml version="1.0" encoding="utf-8"?>

<!DOCTYPE svg PUBLIC "-//W3C//DTD SVG 1.1//EN" "http://www.w3.org/Graphics/SVG/1.1/DTD/svg11.dtd">
<!-- Uploaded to: SVG Repo, www.svgrepo.com, Generator: SVG Repo Mixer Tools -->
<svg version="1.1" id="_x32_" xmlns="http://www.w3.org/2000/svg" xmlns:xlink="http://www.w3.org/1999/xlink" 
	 width="800px" height="800px" viewBox="0 0 512 512"  xml:space="preserve">
<style type="text/css">
<![CDATA[
	.st0{fill:#000000;}
]]>
</style>
<g>
	<path class="st0" d="M507.479,105.07c-3.484-1.172-7.234,0.719-8.375,4.188c-3,8.906-7.016,13.953-11.516,17.313
		c-1.313,0.969-2.734,1.781-4.188,2.516c0.719-2.719,1.109-5.516,1.125-8.344c-0.016-4.469-1-9.063-3.438-13.172
		c-2.125-3.563-5.094-6.359-8.5-8.25s-7.219-2.875-11.094-2.875c-3.734,0-7.563,0.969-11.031,2.906
		c-0.047,0.031-0.109,0.031-0.156,0.063c-0.078,0.047-0.172,0.078-0.25,0.125h-0.031c0,0.016,0,0.016,0,0.016s0,0-0.016,0
		l-0.156,0.094v0.016c-0.016,0-0.016,0-0.031,0c-0.125,0.094-0.234,0.172-0.344,0.266c-0.016,0-0.031,0.016-0.047,0.016
		c-3.266,2.094-5.875,4.906-7.656,8.094c-1.891,3.406-2.875,7.219-2.875,11.109c0,3.953,1.031,8.016,3.219,11.656
		c2.734,4.547,6.781,8.188,11.453,10.891c0.891,0.516,1.828,0.953,2.766,1.406c-2.172,1.375-4.625,2.656-7.328,3.75
		c-3.594,1.469-7.641,2.563-12.016,3.156c-14.672-22.547-36.531-43.281-67.906-60.719c-71.953-39.969-167.406-13.406-214.844,16.234
		c-29.5-18.672-55.75-13.797-63.703-11.438l10.859,57.891c-21.688,26.828-39.156,35.813-39.156,35.813L18.4,196.43
		c-6.188,0-11.969,3.141-15.375,8.313s-3.969,11.719-1.516,17.406l33.641,95.859c2.922,6.75,9.563,11.109,16.906,11.109
		l71.875,15.063l30.297,76.297c15.172,33.563,55.75,26.516,57.375-1.078l6.484-37.875h105c0,0,3.25,16.859,4.859,31.375
		c2.438,21.922,34.641,50.328,67.109,6.5c37.375-50.469,97-166.031,49.031-257.297c6.109-1.375,11.672-3.484,16.391-6.094
		c4.047-2.219,7.547-4.766,10.438-7.391c1.063-0.969,2.016-1.938,2.922-2.938c0.063,0,0.125-0.016,0.203-0.031v0.016
		c7.047-1.172,14.625-3.422,21.438-8.469c6.828-5.031,12.563-12.813,16.172-23.766C512.822,109.977,510.932,106.227,507.479,105.07z
		 M337.15,135.602c-40.219-5.078-70.172-5.078-110.391,0v-23.813c36.313-6.297,74.078-6.297,110.391,0V135.602z M470.135,127.195
		c-0.719,2.063-1.781,3.984-3,5.547c-2.266-0.344-4.734-1.219-6.969-2.516c-2.953-1.688-5.438-4.063-6.688-6.219
		c-0.906-1.531-1.344-3.203-1.344-4.859c0-1.625,0.422-3.266,1.203-4.672c0.781-1.391,1.906-2.594,3.391-3.5
		c1.516-0.875,3.141-1.281,4.766-1.297c1.625,0,3.25,0.422,4.672,1.219c1.422,0.781,2.641,1.922,3.547,3.438
		c1,1.672,1.563,3.875,1.563,6.406C471.275,122.82,470.885,125.086,470.135,127.195z"/>
</g>
</svg>