<svg class="svg-icon" style="width: 1em; height: 1em;vertical-align: middle;fill: #3ea34a;overflow: hidden; stroke: #3ea34a; stroke-width: 20;" viewBox="0 0 1024 1024" version="1.1" xmlns="http://www.w3.org/2000/svg"><path d="M591.872 528.384c15.36 14.336 22.528 33.792 22.528 59.392s-7.168 45.056-22.528 59.392c-13.312 13.312-31.744 21.504-54.272 25.6-4.096 1.024-7.168 4.096-7.168 9.216v17.408c0 9.216-7.168 17.408-17.408 17.408-9.216 0-17.408-7.168-17.408-17.408v-17.408c0-4.096-3.072-8.192-7.168-9.216-22.528-4.096-40.96-12.288-56.32-26.624-10.24-10.24-17.408-23.552-21.504-38.912-4.096-16.384 8.192-31.744 24.576-31.744h1.024c12.288 0 22.528 8.192 24.576 19.456 2.048 10.24 6.144 17.408 13.312 23.552 10.24 9.216 22.528 13.312 37.888 13.312 16.384 0 28.672-4.096 36.864-11.264 8.192-7.168 13.312-17.408 13.312-30.72 0-12.288-4.096-22.528-12.288-30.72s-21.504-15.36-39.936-21.504c-30.72-10.24-53.248-22.528-68.608-36.864s-22.528-34.816-22.528-59.392c0-23.552 7.168-43.008 21.504-58.368 13.312-13.312 30.72-22.528 52.224-26.624 4.096-1.024 7.168-4.096 7.168-9.216v-22.528c0-9.216 7.168-17.408 17.408-17.408h1.024c9.216 0 17.408 7.168 17.408 17.408V348.16c0 4.096 3.072 8.192 7.168 8.192 21.504 4.096 37.888 14.336 51.2 29.696 8.192 10.24 14.336 23.552 17.408 37.888 3.072 15.36-9.216 30.72-25.6 30.72H583.68c-12.288 0-22.528-8.192-25.6-20.48-2.048-9.216-5.12-16.384-10.24-22.528-8.192-10.24-19.456-16.384-32.768-16.384-14.336 0-25.6 4.096-32.768 11.264-7.168 8.192-11.264 18.432-11.264 31.744 0 12.288 4.096 22.528 11.264 29.696 8.192 8.192 21.504 15.36 41.984 22.528 30.72 11.264 53.248 23.552 67.584 37.888zM972.8 512c0 253.952-206.848 460.8-460.8 460.8S51.2 765.952 51.2 512 258.048 51.2 512 51.2s460.8 206.848 460.8 460.8z m-40.96 0C931.84 280.576 743.424 92.16 512 92.16S92.16 280.576 92.16 512s188.416 419.84 419.84 419.84 419.84-188.416 419.84-419.84z"  /></svg>