<?xml version="1.0" standalone="yes"?>
<svg xmlns="http://www.w3.org/2000/svg" width="280" height="280">

<path style="fill:#39b88b; stroke:#39b88b; stroke-width:6;" d="M135 1.42438C86.6008 7.77609 44.9014 26.4915 19.4275 71C-32.3707 161.503 35.2997 278.971 140 278.971C207.666 278.971 264.209 229.539 276.999 164C281.766 139.572 278.729 113.182 269.936 90C267.773 84.2964 263.789 69.9007 256.907 68.4923C250.886 67.26 249.569 73.7614 251.414 78C264.501 108.053 272.122 136.128 264.346 169C249.132 233.312 184.004 276.491 119 265.565C104.212 263.079 89.9778 257.704 77 250.28C-0.107407 206.168 -8.39463 95.7461 61 40.6659C88.9624 18.4715 125.632 8.37732 161 14.2855C171.956 16.1156 183 19.4205 193 24.2585C197.227 26.3034 203.909 31.3666 208.852 29.3812C220.824 24.5725 198.347 13.8195 195 12.3117C177.706 4.52081 153.989 -1.0676 135 1.42438z"/>
<path style="fill:#39b88b; stroke:#39b88b; stroke-width:6;" d="M190.999 108.758C184.455 111.065 178.783 119.217 174 124L139 159C134.874 163.126 129.533 170.973 124 173.079C120.372 174.459 117.241 170.22 115 167.999C108.649 161.705 102.485 155.196 96 149.04C92.9711 146.165 87.7615 141.101 83.4375 144.747C78.7996 148.658 84.1594 154.051 87.0154 157C95.535 165.796 104.311 174.37 113 182.999C115.769 185.749 119.517 190.6 124 189.338C131.283 187.287 138.775 176.225 144 171L180 135C185.587 129.413 193.223 123.743 197.393 117C200.43 112.089 196.67 106.759 190.999 108.758z"/>

</svg>
