<?xml version="1.0" standalone="no"?>
<!DOCTYPE svg PUBLIC "-//W3C//DTD SVG 20010904//EN"
 "http://www.w3.org/TR/2001/REC-SVG-20010904/DTD/svg10.dtd">
<svg version="1.0" xmlns="http://www.w3.org/2000/svg"
 width="512.000000pt" height="512.000000pt" viewBox="0 0 512.000000 512.000000"
 preserveAspectRatio="xMidYMid meet">

<g transform="translate(0.000000,512.000000) scale(0.100000,-0.100000)"
fill="#ffffff" stroke="none">
<path d="M1454 4385 c-91 -20 -180 -69 -249 -139 -56 -56 -90 -112 -133 -218
l-12 -28 -409 0 -409 0 -31 -26 c-54 -45 -51 -129 7 -174 24 -19 42 -20 438
-20 259 0 414 -4 414 -10 0 -28 47 -127 86 -180 184 -250 560 -274 769 -48 51
55 113 160 128 218 l5 20 1412 0 1412 0 28 29 c50 49 52 105 6 158 l-24 28
-1417 5 -1417 5 -22 60 c-58 161 -202 284 -374 321 -81 17 -128 17 -208 -1z
m196 -231 c70 -21 149 -98 173 -168 46 -135 -10 -279 -134 -342 -167 -84 -359
8 -400 192 -23 101 26 224 110 280 84 55 157 66 251 38z"/>
<path d="M3720 3055 c-172 -39 -311 -161 -372 -327 l-21 -58 -1544 0 -1545 0
-28 -29 c-50 -49 -52 -105 -6 -158 l24 -28 1552 -5 1551 -5 17 -50 c50 -148
177 -271 327 -317 260 -81 532 56 627 315 l21 57 279 0 280 0 28 29 c52 51 52
111 0 162 l-28 29 -280 0 -280 0 -13 38 c-81 252 -338 403 -589 347z m204
-235 c61 -23 124 -80 152 -138 26 -52 26 -192 1 -243 -82 -164 -296 -207 -432
-87 -159 140 -111 401 87 469 69 24 125 24 192 -1z"/>
<path d="M2199 1730 c-181 -28 -337 -157 -401 -332 l-21 -58 -769 0 -770 0
-28 -29 c-52 -51 -52 -111 0 -162 l28 -29 770 0 769 0 21 -57 c55 -149 169
-262 316 -313 258 -88 542 50 637 310 l22 60 1054 0 1055 0 28 29 c52 51 52
111 0 162 l-28 29 -1055 0 -1054 0 -21 58 c-84 230 -314 368 -553 332z m160
-236 c69 -20 141 -86 171 -156 27 -62 25 -171 -4 -230 -80 -166 -299 -208
-434 -84 -126 115 -124 302 3 414 77 67 164 86 264 56z"/>
</g>
</svg>
