<?xml version="1.0" standalone="no"?>
<!DOCTYPE svg PUBLIC "-//W3C//DTD SVG 20010904//EN"
 "http://www.w3.org/TR/2001/REC-SVG-20010904/DTD/svg10.dtd">
<svg version="1.0" xmlns="http://www.w3.org/2000/svg"
 width="280.000000pt" height="280.000000pt" viewBox="0 0 280.000000 280.000000"
 preserveAspectRatio="xMidYMid meet">

<g transform="translate(0.000000,280.000000) scale(0.100000,-0.100000)"
fill="#F0504A" stroke="#F0504A" stroke-width="50">
<path d="M1165 2760 c-444 -78 -828 -373 -1019 -781 -175 -376 -172 -818 10
-1181 221 -442 652 -735 1139 -773 39 -3 78 -8 88 -11 20 -6 143 8 276 32 475
87 896 456 1051 922 44 134 61 234 66 390 7 241 -32 427 -134 632 -48 98 -61
115 -83 118 -15 2 -32 -5 -44 -17 -18 -20 -17 -23 28 -113 96 -194 131 -347
131 -573 0 -235 -35 -386 -134 -585 -239 -474 -752 -751 -1280 -691 -545 63
-968 430 -1105 962 -36 138 -45 366 -21 511 88 535 481 943 1016 1054 106 22
361 25 470 5 107 -19 272 -74 364 -121 75 -38 80 -40 103 -25 18 12 23 24 21
43 -3 24 -18 34 -118 84 -252 125 -544 167 -825 118z"/>
<path d="M916 1868 c-10 -14 -12 -27 -6 -37 5 -9 97 -104 204 -211 148 -147
196 -201 196 -219 0 -19 -50 -75 -202 -228 -112 -112 -205 -206 -207 -208 -2
-2 4 -16 13 -30 32 -48 50 -37 261 175 154 154 206 200 225 200 19 0 71 -46
225 -200 198 -198 224 -217 253 -188 29 29 10 55 -188 253 -154 154 -200 206
-200 225 0 19 46 71 200 225 198 198 217 224 188 253 -29 29 -55 9 -253 -188
-152 -151 -207 -200 -226 -200 -18 0 -73 49 -224 200 -208 208 -228 222 -259
178z"/>
</g>
</svg>
